<?xml version="1.0" standalone="no"?>
<!DOCTYPE svg PUBLIC "-//W3C//DTD SVG 20010904//EN"
 "http://www.w3.org/TR/2001/REC-SVG-20010904/DTD/svg10.dtd">
<svg version="1.0" xmlns="http://www.w3.org/2000/svg"
 width="512.000000pt" height="512.000000pt" viewBox="0 0 512.000000 512.000000"
 preserveAspectRatio="xMidYMid meet">
<metadata>
Created by potrace 1.14, written by Peter Selinger 2001-2017
</metadata>
<g transform="translate(0.000000,512.000000) scale(0.100000,-0.100000)"
fill="#000000" stroke="none">
<path d="M435 5093 c-158 -23 -325 -147 -398 -297 l-37 -76 0 -2171 0 -2171
23 -47 c13 -25 30 -57 38 -71 22 -39 155 -170 173 -170 9 0 16 -4 16 -8 0 -11
93 -51 158 -68 44 -12 396 -14 2162 -14 1176 0 2119 4 2132 9 13 5 41 14 63
20 48 15 109 43 113 54 2 4 9 7 16 7 19 0 138 118 169 168 61 95 58 -43 55
2323 l-3 2164 -30 60 c-35 71 -149 189 -215 224 -25 13 -70 33 -100 45 l-55
21 -2125 1 c-1169 1 -2138 -1 -2155 -3z m1179 -259 c14 -6 16 -74 16 -669 0
-547 -2 -665 -14 -674 -9 -8 -199 -10 -692 -9 l-679 3 -3 558 c-2 615 -3 610
59 688 36 46 79 78 128 95 28 10 166 13 603 14 311 0 573 -3 582 -6z m1638
-669 c-2 -368 -6 -673 -8 -677 -3 -4 -306 -8 -673 -8 -505 0 -670 3 -679 12
-9 9 -12 172 -12 673 0 364 3 665 7 668 3 4 313 6 687 5 l681 -3 -3 -670z
m1468 653 c45 -22 100 -73 126 -118 43 -74 45 -116 42 -680 l-3 -535 -674 -3
c-522 -2 -677 1 -689 10 -13 11 -14 97 -11 663 2 357 7 658 12 668 8 17 39 18
585 15 519 -3 581 -5 612 -20z m-3101 -1593 c6 -7 7 -239 3 -675 l-7 -665
-687 -3 -688 -2 0 674 0 675 23 4 c50 9 1346 2 1356 -8z m1629 -659 c1 -485
-1 -662 -9 -673 -10 -11 -121 -13 -673 -13 -452 1 -664 4 -673 12 -10 8 -13
133 -13 607 0 328 3 626 7 664 l6 67 676 -2 676 -3 3 -659z m1621 640 c8 -9
10 -191 9 -662 l-3 -649 -684 -3 -684 -2 6 91 c4 51 7 350 7 666 l0 573 669 0
c552 0 671 -2 680 -14z m-1674 -1589 l40 -2 3 -678 2 -677 -672 2 -673 3 0
675 0 675 60 6 c52 4 1129 1 1240 -4z m-1585 -657 c3 -360 4 -665 2 -677 l-3
-23 -559 0 c-461 0 -563 2 -587 14 -15 8 -45 23 -67 33 -68 32 -113 90 -141
182 -4 14 -7 269 -7 569 0 449 2 546 13 553 8 5 313 7 679 6 l665 -2 5 -655z
m3266 636 c3 -12 4 -270 2 -572 -3 -548 -3 -549 -25 -589 -27 -48 -101 -125
-120 -125 -7 0 -13 -4 -13 -10 0 -5 -7 -10 -16 -10 -9 0 -30 -7 -48 -15 -27
-13 -108 -15 -581 -13 l-550 3 -3 669 c-2 529 0 671 10 678 7 4 311 8 675 8
l663 -1 6 -23z"/>
</g>
</svg>
